<?xml version="1.0" encoding="UTF-8" standalone="no"?>
<svg
   width="32"
   height="26.865891"
   fill="none"
   viewBox="0 0 32 26.865891"
   version="1.1"
   id="svg1"
   xmlns:xlink="http://www.w3.org/1999/xlink"
   xmlns="http://www.w3.org/2000/svg"
   xmlns:svg="http://www.w3.org/2000/svg">
  <defs
     id="defs1">
    <linearGradient
       id="linearGradient124">
      <stop
         style="stop-color:#942010;stop-opacity:1;"
         offset="0"
         id="stop124" />
      <stop
         style="stop-color:#944d00;stop-opacity:1;"
         offset="0.25"
         id="stop126" />
      <stop
         style="stop-color:#996d00;stop-opacity:1;"
         offset="0.44611308"
         id="stop127" />
      <stop
         style="stop-color:#3aa3d4;stop-opacity:1;"
         offset="0.55000001"
         id="stop128" />
      <stop
         style="stop-color:#125463;stop-opacity:1;"
         offset="0.75"
         id="stop129" />
      <stop
         style="stop-color:#023555;stop-opacity:1;"
         offset="1"
         id="stop125" />
    </linearGradient>
    <linearGradient
       id="linearGradient118">
      <stop
         style="stop-color:#e83c24;stop-opacity:1;"
         offset="0"
         id="stop118" />
      <stop
         style="stop-color:#fb8500;stop-opacity:1;"
         offset="0.25"
         id="stop119" />
      <stop
         style="stop-color:#ffb703;stop-opacity:1;"
         offset="0.45001474"
         id="stop121" />
      <stop
         style="stop-color:#8ecae6;stop-opacity:1;"
         offset="0.54659891"
         id="stop122" />
      <stop
         style="stop-color:#219ebc;stop-opacity:1;"
         offset="0.75"
         id="stop120" />
      <stop
         style="stop-color:#0474ba;stop-opacity:1;"
         offset="1"
         id="stop123" />
    </linearGradient>
    <linearGradient
       xlink:href="#linearGradient118"
       id="linearGradient129"
       gradientUnits="userSpaceOnUse"
       gradientTransform="matrix(1.1250275,0,0,1.1250275,292.29754,269.37171)"
       x1="-235.31985"
       y1="-127.0536"
       x2="-206.9761"
       y2="-127.0536" />
    <linearGradient
       xlink:href="#linearGradient124"
       id="linearGradient130"
       gradientUnits="userSpaceOnUse"
       x1="-235.49663"
       y1="-88.869827"
       x2="-207.15288"
       y2="-88.869827"
       gradientTransform="matrix(1.1250275,0,0,1.1250275,292.49643,226.41392)" />
  </defs>
  <g
     id="layer2"
     transform="translate(-27.499992,-112.99998)">
    <path
       id="path123-4"
       style="fill:url(#linearGradient129);fill-opacity:1;stroke:url(#linearGradient130);stroke-width:0.112503;stroke-dasharray:none"
       d="m 51.254339,113.05624 c -1.873474,0 -3.518894,0.59393 -4.93518,1.78203 -1.393718,1.18811 -2.089649,2.59476 -2.089649,4.21665 -1.1e-5,1.23366 0.422426,2.36242 1.26785,3.39047 0.867993,1.02804 1.907315,1.90763 3.117991,2.63898 1.220408,0.72344 2.442862,1.44342 3.667331,2.15996 1.23366,0.68537 2.272567,1.47335 3.117991,2.36432 0.867993,0.868 1.303018,1.80529 1.303018,2.81037 0,1.5078 -0.537043,2.7182 -1.610645,3.63216 -1.051024,0.89097 -2.58267,1.22969 -3.977141,1.33597 -0.866519,0.066 -1.760859,-0.12563 -2.568663,-0.44605 -0.580885,-0.23041 -1.119785,-0.59383 -1.564756,-1.0326 -0.706472,-0.69665 -1.239521,-1.56919 -1.674097,-2.46114 -0.378223,-0.7763 -0.518457,-1.64745 -0.788835,-2.46759 1.599328,0 2.39947,-0.43501 2.39947,-1.303 0,-0.38824 -0.159316,-0.70907 -0.479015,-0.96024 -0.319699,-0.25159 -0.732156,-0.37573 -1.234897,-0.37573 l -1.507357,0.0351 c -0.82244,-2.35323 -1.988126,-5.82775 -3.495933,-10.41969 -0.479757,-1.46227 -0.822744,-2.44385 -1.028354,-2.94661 -0.20561,-0.52529 -0.466931,-0.94814 -0.78663,-1.26785 -0.297131,-0.34268 -0.731741,-0.51417 -1.303018,-0.51417 -0.845425,0 -1.50882,0.68595 -1.988576,2.05669 -2.924082,8.56706 -4.420604,12.94198 -4.489119,13.12459 -0.41122,-0.0231 -0.878781,-0.0351 -1.40409,-0.0351 -1.096587,0 -1.645792,0.42462 -1.645792,1.27004 0,0.84543 0.549205,1.26786 1.645792,1.26786 h 0.617449 c -0.251163,0.82243 -0.594139,1.84918 -1.028343,3.08284 -0.41122,1.23366 -0.719466,2.20529 -0.925076,2.91364 -0.205588,0.68537 -0.309822,1.19984 -0.309822,1.54253 0,0.31969 0.104178,0.5932 0.309822,0.82179 0.20561,0.2286 0.479115,0.34278 0.821799,0.34278 0.571277,0 1.016271,-0.42243 1.33597,-1.26785 0.09158,-0.25116 0.846538,-2.75445 2.26324,-7.50604 1.485239,-0.0685 2.762505,-0.10103 3.836524,-0.10103 1.073602,0 2.982549,0.0325 5.724016,0.10103 0.414572,1.30949 0.764692,3.07747 1.57263,4.41432 0.860703,1.42413 1.933461,2.85509 3.384522,3.66961 1.277896,0.71731 2.849447,0.96621 4.311139,0.86136 2.115861,-0.15178 4.445321,-0.70813 5.99868,-2.12481 1.553359,-1.4163 2.329156,-3.16374 2.329156,-5.24281 0,-1.32519 -0.432821,-2.54776 -1.300813,-3.66733 -0.845425,-1.11957 -1.886536,-2.05646 -3.120197,-2.81036 -1.198255,-0.76949 -2.420575,-1.50082 -3.665125,-2.19293 -1.210676,-0.70834 -2.252215,-1.45119 -3.120185,-2.22808 -0.845425,-0.79946 -1.267861,-1.66729 -1.267861,-2.60382 0,-0.95952 0.457166,-1.77005 1.371127,-2.43243 0.91395,-0.68537 1.863034,-1.02836 2.845532,-1.02836 1.005066,0 1.80343,0.10204 2.397276,0.30763 0.593846,0.18304 1.02886,0.40144 1.303007,0.6526 0.307324,0.23506 0.627934,0.45222 0.960233,0.65041 0.342684,0.18256 0.683466,0.27467 1.026149,0.27467 0.342683,0 0.618383,-0.10429 0.823993,-0.30982 0.228594,-0.20561 0.342784,-0.48909 0.342784,-0.85476 0,-0.79946 -0.663395,-1.52057 -1.988576,-2.15997 -1.325181,-0.63981 -2.923282,-0.96023 -4.796746,-0.96023 z m -14.102399,4.07823 c 0.274147,0 1.58918,3.78055 3.941995,11.34256 -1.187691,0.0685 -2.512704,0.10327 -3.974958,0.10327 -1.43927,0 -2.799012,-0.0348 -4.078225,-0.10327 l 0.925077,-2.84333 c 1.804937,-5.66556 2.866412,-8.49923 3.186111,-8.49923 z" />
  </g>
</svg>
